#!OML:ASF F:\VICON\USERDATA\INSTALL\rory3\rory3.ASF
:FULLY-SPECIFIED
:DEGREES
28
root 0.2080064176896748 18.011007927853452 5.432856553666621 -1.497121770574907 1.5732879569511389 -1.254636168758939
lfemur 5.380988430592774 -5.4583949237956855 -19.66529020723378
ltibia 36.924339515687336
lfoot -4.875980025257136 -10.178613919961148
ltoes -2.9178443095686792
rfemur -21.13793648597563 3.6917368768865924 25.578797507609707
rtibia 31.425938368668483
rfoot -4.612020563735472 -2.9009342808508904
rtoes 4.1174755642795775
lowerback 8.894926779127335 -0.7086245615394244 -0.15791012045626518
upperback 0.16614672181291112 -1.4324805299974688 1.9464465869390641
thorax -4.5410441794414185 -0.5921316957959405 2.14361749744626
lowerneck -16.472662023479927 -2.640698982664332 -1.983772253773483
upperneck 21.876522192735198 -4.2033428126651895 -0.11694724745075058
head 9.670881482575428 -1.9532274237617997 -0.22201188019051338
lclavicle -4.532848353718899e-16 -7.764206626694313e-16
lhumerus -24.947668366839235 1.2563464755220948 80.99684991452177
lradius 29.17298172552089
lwrist 8.116143569299066
lhand -27.567494353093647 24.14148382642337
lfingers 7.12502
lthumb -1.053418819758237 53.97918626588327
rclavicle -4.541508532217755e-16 -7.770900071493318e-16
rhumerus -36.88800617102863 -31.573686848985524 -70.30220777605015
rradius 21.748237598450224
rwrist 6.043862974793742
rhand -18.46635001556183 22.404586336304085
rfingers 7.12502
rthumb 7.843277948830198 -7.462745075808942
29
root 0.1432210804978815 18.061474828553695 5.614255107800622 -1.9236522052684366 1.2131623789411154 -2.445237152844363
lfemur -0.2900863275787593 -4.162225641084619 -16.77903425315689
ltibia 46.9066928155091
lfoot -0.8842254261940798 -12.224912036628641
ltoes -2.1054046809995275
rfemur -17.3399927341518 4.4633053419126005 28.198351259195054
rtibia 32.14754745704161
rfoot -5.59175197351428 -3.9104103233403262
rtoes 3.6316055382461445
lowerback 9.198033164279895 -0.5315499949205653 0.8434061106290002
upperback 0.14592600930559926 -1.0874799150313048 2.158297161976634
thorax -4.643218834890107 -0.38952415545153085 1.5846401645741988
lowerneck -16.32690519117481 -2.627341059931734 -2.0405456916259426
upperneck 22.027665255965555 -4.2234831536150175 -0.16078193631880622
head 9.690734519635845 -1.955566084804952 -0.18343318533048053
lclavicle -4.532850802947322e-16 -7.764208519700935e-16
lhumerus -26.58417894740008 1.3385881874995578 81.31637192558777
lradius 27.813705770723022
lwrist 7.545228836311985
lhand -27.861566526559088 23.073786573579913
lfingers 7.12502
lthumb -0.9182778676730501 54.164919920003484
rclavicle -4.541508896255862e-16 -7.77090035285807e-16
rhumerus -36.003890630610336 -30.02608789894792 -71.46770350097611
rradius 21.568579148210567
rwrist 5.67478382704097
rhand -18.341717139650154 22.493512614348173
rfingers 7.12502
rthumb 7.987407876736642 -7.36554242008935
30
root 0.08372021734963103 18.105487936054622 6.184701536569651 -2.3746305520962485 0.7477084389189734 -3.483223440277246
lfemur -6.093310613518341 -2.530637237313624 -14.509380556810488
ltibia 56.47670908658448
lfoot 2.1988346953400404 -13.773424861631405
ltoes -2.096500568222784
rfemur -14.331375243526892 4.932891194122352 29.894807403738707
rtibia 32.39237264573059
rfoot -7.209866310283973 -4.681902033283677
rtoes 4.7626604024617265
lowerback 9.587229856911575 -0.28205372526922096 1.8256177397569306
upperback 0.1696619282737349 -0.6403532604670563 2.222640909360035
thorax -4.78626138893773 -0.18567919302309588 1.1053034388577343
lowerneck -16.144499276156658 -2.6892782218240887 -2.05808981350363
upperneck 22.195051198553475 -4.239826502640998 -0.13542976847928545
head 9.712958812027944 -1.9858188502659246 -0.1668639652275684
lclavicle -4.532838213985723e-16 -7.764198789702928e-16
lhumerus -27.923039578275386 1.5759448577167872 81.61954065342951
lradius 26.48391349782368
lwrist 7.087939529823624
lhand -27.676153834226902 24.562577049472242
lfingers 7.12502
lthumb -0.9025431246999038 55.09808367429314
rclavicle -4.541511936482286e-16 -7.770902702646558e-16
rhumerus -33.94571780039479 -27.616880898998943 -73.46464605956776
rradius 21.5220268984296
rwrist 5.576915668990407
rhand -18.051819177644806 21.98161347342282
rfingers 7.12502
rthumb 8.249852716673843 -7.906241466113691
31
root 0.04791209431142146 18.138265427697526 6.91371455290143 -2.7295128717184416 0.2431426174705047 -4.070267358027771
lfemur -11.4161490727168 -0.35092242942959495 -13.202697580891158
ltibia 62.926671458896294
lfoot 3.7350510064747064 -13.94340464003746
ltoes -1.6279723271493638
rfemur -11.355552306377058 5.0449151417771905 30.94773478449474
rtibia 32.96965891326997
rfoot -9.124243717569595 -4.878120123081362
rtoes 5.565654201181779
lowerback 9.678966697658767 -0.004816618962694141 2.4290890481575533
upperback 0.21691672957912891 -0.17792046515199178 2.2143051831831833
thorax -4.805819596817861 0.03583471914772224 0.6911076673942503
lowerneck -16.092558341610875 -2.7575879375829313 -2.1162589754331984
upperneck 22.294378864317995 -4.271905183364289 -0.09354071043980894
head 9.731571239259333 -2.0201744481726442 -0.12755155331495088
lclavicle -4.532829676844069e-16 -7.764192191353204e-16
lhumerus -29.127558268520552 2.2168422079614643 81.71290415363931
lradius 25.420401376762502
lwrist 6.772124916928585
lhand -27.831669158297256 23.16849194109457
lfingers 7.12502
lthumb -1.2067345798241176 53.4473169961747
rclavicle -4.541511419370053e-16 -7.770902302970939e-16
rhumerus -31.76417381586068 -25.324362624658015 -75.40613644658849
rradius 21.714102579519317
rwrist 5.550428247972628
rhand -17.686116230319666 22.563834418663998
rfingers 7.12502
rthumb 8.454020296729796 -7.614866471896373
32
root 0.027951773143294667 18.156360426184982 7.556332269918132 -2.988541410582019 -0.3100801189443576 -4.42543748009167
lfemur -16.485658906176337 1.8347982654662003 -12.649541961501722
ltibia 66.35736862212627
lfoot 2.7261719263097133 -14.15452277286634
ltoes -2.099250231899461
rfemur -8.332193843987833 5.133710168392979 31.431612886266034
rtibia 33.64308297657568
rfoot -11.088407564806955 -4.89909533034198
rtoes 5.5712624900581265
lowerback 9.673283218939057 0.2596583113508223 2.7730749342313787
upperback 0.2498954906229478 0.3243616661553565 2.1257855572636934
thorax -4.838415515255437 0.24992226824994676 0.29035956981192096
lowerneck -16.114955333219434 -2.784356878459943 -2.1891811754222874
upperneck 22.380753422284915 -4.145102847957232 -0.028571800729566887
head 9.720467808931014 -2.01914783711358 -0.10259823631258481
lclavicle -4.532835187870842e-16 -7.764196450821239e-16
lhumerus -30.36719411726094 2.5305069056512717 81.7833907233124
lradius 24.7415700983975
lwrist 6.76027208130461
lhand -27.65738510175102 23.3693196769664
lfingers 7.12502
lthumb -0.9129617461294156 53.89148339417345
rclavicle -4.541507293508022e-16 -7.770899114095587e-16
rhumerus -29.603153090517694 -22.39217801996547 -77.39586874547867
rradius 22.297805261686715
rwrist 5.230965706309364
rhand -17.882812944272235 22.79652280999744
rfingers 7.12502
rthumb 8.235273021227753 -7.313523607446818
33
root 0.026592290573500543 18.154273722563428 8.229482194645726 -3.1260344718494206 -1.0087323003167248 -4.713052514959571
lfemur -21.145930638349633 3.667887933626401 -12.278558145162052
ltibia 67.23950623319391
lfoot 1.4258642494071863 -12.555729158037483
ltoes -2.627831760802711
rfemur -5.791334232497605 5.277337162684696 32.11734143657538
rtibia 34.194711180017194
rfoot -12.851392154241854 -4.8364329770571866
rtoes 4.701353510160914
lowerback 9.703799745322172 0.5335493990232214 3.2798094193550327
upperback 0.25789199546240504 0.8963021552036192 2.012407584426895
thorax -4.902295342929871 0.480351940673008 -0.14362330266927092
lowerneck -16.075044231325244 -2.8080271989652923 -2.2696155666983873
upperneck 22.378488247931383 -4.0482562913833595 -0.0936892438780722
head 9.715449117347683 -2.009194171565211 -0.09811682325901348
lclavicle -4.5328371363585465e-16 -7.764197956805775e-16
lhumerus -31.577383588950624 2.703142894351795 81.85682836221592
lradius 24.247817990342103
lwrist 6.607995624268368
lhand -27.753567178398242 22.624597133969036
lfingers 7.12502
lthumb -0.8886115466571746 53.387705581018935
rclavicle -4.541509018154965e-16 -7.770900447073781e-16
rhumerus -28.00317112162337 -18.91426256933741 -79.2277327984297
rradius 23.491181850773785
rwrist 4.383387560895681
rhand -18.09283471713296 22.548482734237677
rfingers 7.12502
rthumb 8.113829613787642 -7.338170281007084
34
root 0.0379025494038408 18.132949687004118 8.96611186740543 -3.0817903054324027 -1.7401028837915442 -5.0559865859000155
lfemur -25.41261557789882 4.957847926793107 -11.928471877246139
ltibia 65.43745006277629
lfoot -0.03980233115999443 -10.93284265375862
ltoes -2.982685475778162
rfemur -3.6818842017090203 5.08095522995478 32.75080867051377
rtibia 34.67074960505504
rfoot -13.946787355020511 -4.499983430699385
rtoes 3.254611437862679
lowerback 9.887425026382335 0.8451427753469949 4.0919688183800975
upperback 0.2136866097570263 1.4349736819438461 1.898536251170842
thorax -5.073154417136472 0.7176511493220326 -0.6499130075269066
lowerneck -16.06716028176437 -2.8127057893977625 -2.3301362224997906
upperneck 22.370658904199985 -3.89744568195303 -0.06953481941177486
head 9.723191906901707 -1.9728419118959937 -0.07726806855409425
lclavicle -4.53283835602985e-16 -7.764198899488717e-16
lhumerus -32.79446372670951 3.27220837077608 81.81957064453148
lradius 23.70483992425934
lwrist 6.242105866092258
lhand -27.884325303310337 22.082757035657945
lfingers 7.12502
lthumb -1.1075731095892727 52.68985584098662
rclavicle -4.541505986515695e-16 -7.770898103922297e-16
rhumerus -26.435512372685412 -15.174678753665678 -80.80307808059057
rradius 25.20932297721787
rwrist 3.4385131493074423
rhand -18.100774481289797 22.24406139280452
rfingers 7.12502
rthumb 8.064645717587368 -7.719134085102213
